<svg width="20" height="20" viewBox="0 0 20 20" fill="none" xmlns="http://www.w3.org/2000/svg">
<path d="M16.4062 1.40625H3.59375C3.01359 1.40625 2.45719 1.63672 2.04695 2.04695C1.63672 2.45719 1.40625 3.01359 1.40625 3.59375V16.4062C1.40625 16.9864 1.63672 17.5428 2.04695 17.953C2.45719 18.3633 3.01359 18.5937 3.59375 18.5937H9.86992V11.4423H8.43965V8.5818H9.85809V7.28906C9.85809 6.11906 10.4154 4.29117 12.8682 4.29117L15.0778 4.30004V6.75086H13.4732C13.2123 6.75086 12.841 6.88078 12.841 7.43805V8.58199H15.1143L14.8533 11.4425H12.7305V18.5937H16.4062C16.6935 18.5937 16.978 18.5372 17.2434 18.4272C17.5088 18.3173 17.7499 18.1562 17.953 17.953C18.1562 17.7499 18.3173 17.5088 18.4272 17.2434C18.5372 16.978 18.5937 16.6935 18.5937 16.4062V3.59375C18.5937 3.30648 18.5372 3.02203 18.4272 2.75663C18.3173 2.49123 18.1562 2.25008 17.953 2.04695C17.7499 1.84383 17.5088 1.6827 17.2434 1.57276C16.978 1.46283 16.6935 1.40625 16.4062 1.40625Z" fill="white"/>
</svg>
