<svg width="42" height="28" viewBox="0 0 42 28" fill="none" xmlns="http://www.w3.org/2000/svg">
<g clip-path="url(#clip0_190_21149)">
<path d="M41.4085 12.5649C41.5962 12.7534 41.7452 12.9774 41.8468 13.2241C41.9484 13.4707 42.0007 13.735 42.0007 14.002C42.0007 14.269 41.9484 14.5334 41.8468 14.78C41.7452 15.0266 41.5962 15.2506 41.4085 15.4392L38.9896 17.875L36.6997 20.1769L29.0641 27.866C29.0263 27.9049 28.9811 27.9357 28.9312 27.9566C28.8814 27.9775 28.8279 27.9881 28.7738 27.9878H10.1484C10.0666 27.99 9.98608 27.9672 9.91752 27.9222C9.84897 27.8772 9.79562 27.8123 9.76456 27.7361C9.7335 27.6599 9.7262 27.576 9.74363 27.4955C9.76106 27.415 9.8024 27.3418 9.86215 27.2855L12.8696 24.2569L14.4822 22.633C14.52 22.5942 14.5652 22.5634 14.6151 22.5425C14.6649 22.5215 14.7185 22.5109 14.7725 22.5112H26.4638C26.5178 22.5116 26.5714 22.5009 26.6212 22.48C26.6711 22.4591 26.7162 22.4283 26.7541 22.3894L28.9351 20.1931L33.656 15.4432C33.8437 15.2547 33.9926 15.0307 34.0942 14.7841C34.1959 14.5375 34.2482 14.2731 34.2482 14.0061C34.2482 13.7391 34.1959 13.4747 34.0942 13.2281C33.9926 12.9815 33.8437 12.7575 33.656 12.5689L26.7944 5.61868C26.7566 5.57983 26.7114 5.54903 26.6615 5.52811C26.6117 5.50719 26.5581 5.49657 26.5041 5.49689H21.0092C20.9274 5.49911 20.8469 5.47622 20.7783 5.43126C20.7098 5.38631 20.6565 5.32141 20.6254 5.2452C20.5943 5.16899 20.587 5.08506 20.6045 5.00457C20.6219 4.92407 20.6632 4.85083 20.723 4.79455L23.3515 2.15166L25.3672 0.121797C25.405 0.0829488 25.4502 0.0521501 25.5001 0.031228C25.5499 0.010306 25.6035 -0.000310779 25.6575 6.92516e-06H28.7658C28.8198 -0.000310779 28.8733 0.010306 28.9232 0.031228C28.973 0.0521501 29.0182 0.0829488 29.056 0.121797L41.4085 12.5649Z" fill="#00DB96"/>
<path d="M22.153 0.727168L17.541 5.3715C17.462 5.45157 17.3547 5.49683 17.2427 5.49736H13.2918C13.2372 5.4946 13.1826 5.50307 13.1313 5.52223C13.0801 5.5414 13.0332 5.57086 12.9936 5.60884C12.954 5.64682 12.9225 5.69251 12.901 5.74313C12.8795 5.79376 12.8684 5.84827 12.8685 5.90333V21.4521C12.868 21.565 12.823 21.673 12.7435 21.7525L12.4734 22.0245L8.1315 26.3969C8.07781 26.4689 8.00187 26.5209 7.91561 26.5447C7.82936 26.5685 7.73769 26.5628 7.65503 26.5284C7.57238 26.494 7.50344 26.4329 7.45906 26.3547C7.41467 26.2765 7.39737 26.1856 7.40987 26.0965V5.92363C7.40994 5.86856 7.39887 5.81406 7.37737 5.76343C7.35586 5.71281 7.32435 5.66712 7.28475 5.62914C7.24515 5.59116 7.1983 5.5617 7.14704 5.54253C7.09578 5.52337 7.04117 5.5149 6.98656 5.51765H0.423301C0.368688 5.52041 0.314095 5.51195 0.262832 5.49278C0.211569 5.47361 0.164708 5.44415 0.125111 5.40617C0.0855134 5.36819 0.0540017 5.3225 0.0324928 5.27188C0.010984 5.22125 -6.80819e-05 5.16675 3.15533e-07 5.11168V0.426745C-6.80819e-05 0.37168 0.010984 0.317177 0.0324928 0.266551C0.0540017 0.215925 0.0855134 0.170233 0.125111 0.132257C0.164708 0.0942808 0.211569 0.0648149 0.262832 0.0456492C0.314095 0.0264835 0.368688 0.0180181 0.423301 0.0207714H21.8668C21.9494 0.0175895 22.0311 0.0400928 22.1006 0.0852269C22.1701 0.130361 22.2242 0.195942 22.2554 0.273071C22.2867 0.3502 22.2936 0.435145 22.2753 0.516379C22.257 0.597613 22.2143 0.671204 22.153 0.727168Z" fill="#00DB96"/>
<path d="M18.017 2.13672H10.2406H10.2174H9.5666H9.54337H2.05025C2.00297 2.13671 1.95759 2.15545 1.92389 2.18889C1.89019 2.22233 1.87088 2.26779 1.87012 2.31546V2.85756C1.87011 2.88128 1.8748 2.90477 1.88389 2.92665C1.89297 2.94853 1.90628 2.96836 1.92305 2.985C1.93981 3.00164 1.9597 3.01474 1.98154 3.02355C2.00337 3.03236 2.02673 3.0367 2.05025 3.03631H9.38648L9.35162 21.7736C9.35368 21.8066 9.36463 21.8384 9.38328 21.8656C9.40194 21.8928 9.42758 21.9143 9.45747 21.9279C9.48736 21.9415 9.52036 21.9465 9.5529 21.9426C9.58544 21.9386 9.61629 21.9258 9.64214 21.9055L10.2929 21.2548C10.3221 21.2275 10.3454 21.1944 10.3614 21.1576C10.3774 21.1208 10.3857 21.081 10.3859 21.0409V3.02459H17.4207C17.4447 3.02466 17.4684 3.01976 17.4904 3.01018C17.5124 3.0006 17.5322 2.98655 17.5485 2.96891L18.139 2.43853C18.1625 2.41359 18.1784 2.38233 18.1847 2.34851C18.191 2.31468 18.1875 2.27973 18.1747 2.24786C18.1618 2.21598 18.14 2.18854 18.1121 2.16882C18.0841 2.14911 18.0511 2.13796 18.017 2.13672Z" fill="#0B0C10"/>
</g>
<defs>
<clipPath id="clip0_190_21149">
<rect width="42" height="28" fill="white"/>
</clipPath>
</defs>
</svg>
