<svg width="20" height="20" viewBox="0 0 20 20" fill="none" xmlns="http://www.w3.org/2000/svg">
<path d="M19.5818 4.84194C19.4687 4.389 19.2459 3.97561 18.9356 3.64316C18.6253 3.31071 18.2384 3.07085 17.8136 2.94758C16.25 2.5 10 2.5 10 2.5C10 2.5 3.75 2.5 2.18636 2.94758C1.76161 3.07085 1.37472 3.31071 1.06441 3.64316C0.754097 3.97561 0.531255 4.389 0.418182 4.84194C4.96705e-08 6.51371 0 10 0 10C0 10 4.96705e-08 13.4863 0.418182 15.1581C0.531255 15.611 0.754097 16.0244 1.06441 16.3568C1.37472 16.6893 1.76161 16.9292 2.18636 17.0524C3.75 17.5 10 17.5 10 17.5C10 17.5 16.25 17.5 17.8136 17.0524C18.2384 16.9292 18.6253 16.6893 18.9356 16.3568C19.2459 16.0244 19.4687 15.611 19.5818 15.1581C20 13.4863 20 10 20 10C20 10 20 6.51371 19.5818 4.84194Z" fill="#FAFFF9"/>
<path d="M7.5 13.3332V6.6665L14.1667 9.99984L7.5 13.3332Z" fill="#2D313F"/>
</svg>
